Coordinates
version=1
nRows=43
nColumns=12
inDegrees=yes

Units are S.I. units (second, meters, Newtons, ...)
Angles are in degrees

endheader
time	SC_y	SC_z	SC_x	AC_y	AC_z	AC_x	GH_y	GH_z	GH_yy	EL_x	PS_y
       0.0               -12.6          17.08          75.47           34.7         -4.931         -9.091         -54.07          43.98          92.39          121.0           25.6
   0.01223               -12.6          17.08          75.47           34.7         -4.931         -9.089         -54.08          43.98          92.37          121.0           25.6
   0.02446               -12.6          17.07          75.46          34.71         -4.932         -9.087         -54.09          43.98          92.36          121.0           25.6
   0.03669               -12.6          17.07          75.46          34.71         -4.932         -9.084          -54.1          43.98          92.34          121.0          25.59
   0.04892               -12.6          17.07          75.45          34.71         -4.932         -9.081         -54.11          43.97          92.32          121.0          25.59
   0.06115              -12.61          17.07          75.44          34.71         -4.932         -9.079         -54.12          43.97           92.3          121.0          25.59
   0.07338              -12.61          17.07          75.44          34.71         -4.933         -9.076         -54.13          43.97          92.28          121.0          25.58
   0.08561              -12.61          17.06          75.43          34.71         -4.933         -9.072         -54.14          43.97          92.26          121.0          25.58
   0.09784              -12.61          17.06          75.42          34.71         -4.933         -9.069         -54.16          43.96          92.24          121.0          25.57
    0.1101              -12.62          17.06          75.41          34.71         -4.934         -9.065         -54.17          43.96          92.21          121.0          25.57
    0.1223              -12.62          17.05           75.4          34.72         -4.934         -9.061         -54.19          43.95          92.18          121.0          25.57
    0.1345              -12.62          17.05          75.39          34.72         -4.934         -9.057          -54.2          43.95          92.15          121.0          25.56
    0.1468              -12.63          17.05          75.38          34.72         -4.935         -9.052         -54.22          43.95          92.12          121.0          25.56
     0.159              -12.63          17.04          75.37          34.72         -4.935         -9.047         -54.24          43.94          92.09          121.0          25.55
    0.1712              -12.63          17.04          75.36          34.72         -4.936         -9.042         -54.26          43.94          92.05          121.0          25.54
    0.1834              -12.64          17.03          75.34          34.73         -4.937         -9.036         -54.28          43.93          92.01          121.0          25.54
    0.1957              -12.64          17.03          75.33          34.73         -4.937         -9.029          -54.3          43.92          91.97          121.0          25.53
    0.2079              -12.65          17.02          75.31          34.73         -4.938         -9.023         -54.33          43.92          91.92          121.0          25.52
    0.2201              -12.65          17.02           75.3          34.74         -4.939         -9.015         -54.36          43.91          91.87          121.0          25.51
    0.2324              -12.66          17.01          75.28          34.74         -4.939         -9.007         -54.39           43.9          91.81          121.1           25.5
    0.2446              -12.67           17.0          75.26          34.74          -4.94         -8.997         -54.42          43.89          91.75          121.1          25.49
    0.2568              -12.68           17.0          75.23          34.75         -4.941         -8.987         -54.46          43.89          91.68          121.1          25.48
     0.269              -12.68          16.99          75.21          34.75         -4.942         -8.976          -54.5          43.88           91.6          121.1          25.47
    0.2813              -12.69          16.98          75.18          34.76         -4.944         -8.964         -54.54          43.86          91.52          121.1          25.45
    0.2935               -12.7          16.97          75.15          34.77         -4.945          -8.95         -54.59          43.85          91.42          121.1          25.44
    0.3057              -12.72          16.95          75.11          34.77         -4.946         -8.935         -54.65          43.84          91.32          121.1          25.42
     0.318              -12.73          16.94          75.07          34.78         -4.948         -8.918         -54.71          43.82           91.2          121.2           25.4
    0.3302              -12.74          16.92          75.02          34.79          -4.95         -8.899         -54.78           43.8          91.07          121.2          25.38
    0.3424              -12.76          16.91          74.97           34.8         -4.952         -8.877         -54.86          43.78          90.92          121.2          25.35
    0.3547              -12.78          16.89          74.92          34.81         -4.954         -8.852         -54.96          43.76          90.75          121.2          25.33
    0.3669               -12.8          16.86          74.85          34.82         -4.957         -8.824         -55.06          43.73          90.56          121.3          25.29
    0.3791              -12.82          16.84          74.78          34.83          -4.96         -8.792         -55.18           43.7          90.33          121.3          25.26
    0.3913              -12.85          16.81          74.69          34.85         -4.964         -8.754         -55.32          43.67          90.08          121.3          25.21
    0.4036              -12.88          16.77          74.59          34.87         -4.968         -8.711         -55.48          43.63          89.78          121.4          25.16
    0.4158              -12.92          16.73          74.47          34.89         -4.973          -8.66         -55.66          43.58          89.43          121.5          25.11
     0.428              -12.97          16.69          74.33          34.92         -4.979           -8.6         -55.88          43.52          89.02          121.5          25.04
    0.4403              -13.02          16.63          74.16          34.95         -4.986         -8.529         -56.15          43.46          88.53          121.6          24.95
    0.4525              -13.09          16.56          73.96          34.99         -4.994         -8.444         -56.46          43.38          87.95          121.7          24.86
    0.4647              -13.16          16.48          73.72          35.03         -5.004          -8.34         -56.84          43.28          87.24          121.8          24.74
    0.4769              -13.26          16.38          73.43          35.09         -5.017         -8.214         -57.31          43.16          86.38          122.0          24.59
    0.4892              -13.38          16.26          73.07          35.16         -5.032         -8.059         -57.88          43.02          85.31          122.1          24.41
    0.5014              -13.52           16.1          72.61          35.24         -5.051         -7.865          -58.6          42.84          83.98          122.4          24.19
    0.5136              -13.71          15.91          72.04          35.35         -5.075          -7.62          -59.5          42.61           82.3          122.6          23.91
